<svg width="200" height="50" viewBox="0 0 200 50" fill="none" xmlns="http://www.w3.org/2000/svg">
<path fill-rule="evenodd" clip-rule="evenodd" d="M28.2864 50L50.4636 28.4844H50.4583C59.1979 20.0104 62.745 18.7239 79.4112 18.7239H145.88L165.005 0H76.8906C54.5833 0 48.2761 2.125 35.1927 15.0729L0 50H28.2864ZM79.8125 21.7136H143.026L125.495 39.2448H80.1406C71.8281 39.2448 69.9894 39.6354 65.8644 43.7604L59.625 50H33.3958L52.7864 30.6094C60.4011 23 63.0262 21.7136 79.8125 21.7136ZM200 0L149.864 50H118.859L168.859 0H200ZM166.989 48.4167C168.031 49.4739 169.344 50 170.922 50C172.5 50 173.797 49.4739 174.823 48.4271C175.849 47.3802 176.359 46.0833 176.359 44.5417C176.359 43 175.844 41.7031 174.813 40.6458C173.781 39.5886 172.479 39.0625 170.901 39.0625C169.323 39.0625 168.016 39.5886 166.979 40.6354C165.942 41.6823 165.422 42.9792 165.422 44.5208C165.422 46.0625 165.943 47.3594 166.989 48.4167ZM167.641 41.2656C168.516 40.3698 169.599 39.9219 170.891 39.9219C172.187 39.9219 173.271 40.3698 174.141 41.2656C175.011 42.1614 175.448 43.25 175.448 44.5312C175.448 45.8125 175.011 46.8958 174.141 47.7864C173.266 48.6771 172.187 49.1198 170.891 49.1198C169.594 49.1198 168.511 48.6719 167.641 47.7761C166.771 46.8802 166.333 45.7969 166.333 44.5208C166.333 43.2448 166.771 42.1614 167.641 41.2656ZM169.823 47.5781V45.4323L169.828 45.4375H171.052L172.089 47.5833H173.354L172.214 45.2812C172.599 45.1042 172.87 44.875 173.031 44.5886C173.193 44.3021 173.271 43.8646 173.271 43.2761C173.271 42.6875 173.073 42.2448 172.677 41.9531C172.281 41.6563 171.687 41.5104 170.901 41.5104H168.62V47.5781H169.823ZM169.802 44.4896V42.4479H170.797C171.656 42.4479 172.083 42.7864 172.083 43.4688C172.083 43.8281 172 44.0886 171.833 44.25C171.672 44.4114 171.401 44.4896 171.026 44.4896H169.802Z" fill="#E10600"/>
</svg>
