<svg width="322" height="80" viewBox="0 0 322 80" fill="none" xmlns="http://www.w3.org/2000/svg">
<path d="M12.0754 77.7866L52.541 14.7818C53.4608 13.3497 55.0459 12.4839 56.7479 12.4838L75 12.4834" stroke="#38383F" stroke-width="3" stroke-linecap="round"/>
<path d="M87.8 19V6.8C87.8 5.94667 88.0133 5.22667 88.44 4.64C88.8667 4.04 89.5733 3.74 90.56 3.74C91.2533 3.74 91.8267 3.94 92.28 4.34C92.7333 4.74 93.1933 5.32 93.66 6.08L100.06 16.42C100.18 16.6067 100.3 16.76 100.42 16.88C100.54 17 100.66 17.06 100.78 17.06C100.94 17.06 101.067 17.0067 101.16 16.9C101.253 16.78 101.3 16.6133 101.3 16.4V4H103.6V16.34C103.6 17.22 103.373 17.9267 102.92 18.46C102.48 18.9933 101.827 19.26 100.96 19.26C100.227 19.26 99.6333 19.0667 99.18 18.68C98.74 18.2933 98.32 17.78 97.92 17.14L91.38 6.64C91.2467 6.42667 91.1333 6.26 91.04 6.14C90.9467 6.00667 90.82 5.94 90.66 5.94C90.46 5.94 90.3133 6.00667 90.22 6.14C90.14 6.27333 90.1 6.45333 90.1 6.68V19H87.8ZM117.455 11.34V19H110.055C108.908 19 108.008 18.7667 107.355 18.3C106.715 17.8333 106.395 17.1133 106.395 16.14C106.395 15.4867 106.628 14.9133 107.095 14.42C107.575 13.9133 108.235 13.3467 109.075 12.72L114.135 8.9H106.535V7H112.915C114.435 7 115.568 7.39333 116.315 8.18C117.075 8.96667 117.455 10.02 117.455 11.34ZM109.955 17H115.255V10.46L109.875 14.54C109.501 14.82 109.208 15.06 108.995 15.26C108.781 15.4467 108.675 15.7133 108.675 16.06C108.675 16.3933 108.801 16.6333 109.055 16.78C109.308 16.9267 109.608 17 109.955 17ZM131.987 4V19H125.287C123.687 19 122.46 18.5533 121.607 17.66C120.767 16.7667 120.347 15.4867 120.347 13.82V12.18C120.347 10.5133 120.767 9.23333 121.607 8.34C122.46 7.44667 123.687 7 125.287 7H129.787V4H131.987ZM125.487 17.1H129.787V8.9H125.487C124.447 8.9 123.714 9.13333 123.287 9.6C122.86 10.0533 122.647 10.8133 122.647 11.88V14.1C122.647 15.18 122.86 15.9533 123.287 16.42C123.714 16.8733 124.447 17.1 125.487 17.1ZM137.578 5.36H135.378V3.2H137.578V5.36ZM135.378 19V7H137.578V19H135.378ZM152.419 13.76H142.979V14.74C142.979 15.54 143.226 16.1333 143.719 16.52C144.226 16.9067 144.992 17.1 146.019 17.1H152.039V19H146.319C145.492 19 144.732 18.9133 144.039 18.74C143.346 18.5533 142.752 18.2667 142.259 17.88C141.766 17.4933 141.379 17 141.099 16.4C140.819 15.8 140.679 15.08 140.679 14.24V12.14C140.679 10.38 141.139 9.05333 142.059 8.16C142.992 7.26667 144.339 6.82 146.099 6.82H147.199C148.946 6.82 150.252 7.21333 151.119 8C151.986 8.78667 152.419 9.96667 152.419 11.54V13.76ZM147.479 8.72H145.799C144.786 8.72 144.059 8.94667 143.619 9.4C143.192 9.85333 142.979 10.6667 142.979 11.84V11.94H150.119V11.24C150.119 10.3467 149.939 9.70667 149.579 9.32C149.219 8.92 148.519 8.72 147.479 8.72ZM170.97 11.34V19H163.57C162.423 19 161.523 18.7667 160.87 18.3C160.23 17.8333 159.91 17.1133 159.91 16.14C159.91 15.4867 160.143 14.9133 160.61 14.42C161.09 13.9133 161.75 13.3467 162.59 12.72L167.65 8.9H160.05V7H166.43C167.95 7 169.083 7.39333 169.83 8.18C170.59 8.96667 170.97 10.02 170.97 11.34ZM163.47 17H168.77V10.46L163.39 14.54C163.017 14.82 162.723 15.06 162.51 15.26C162.297 15.4467 162.19 15.7133 162.19 16.06C162.19 16.3933 162.317 16.6333 162.57 16.78C162.823 16.9267 163.123 17 163.47 17ZM174.363 4H176.563V19H174.363V4ZM184.723 8.9C183.67 8.9 182.91 9.10667 182.443 9.52C181.99 9.92 181.763 10.6533 181.763 11.72V14.26C181.763 15.34 181.99 16.0867 182.443 16.5C182.91 16.9 183.67 17.1 184.723 17.1H189.903V19H184.623C183.09 19 181.843 18.58 180.883 17.74C179.937 16.9 179.463 15.6467 179.463 13.98V12.02C179.463 10.3533 179.937 9.1 180.883 8.26C181.843 7.42 183.09 7 184.623 7H192.503V8.9H184.723ZM202.572 11.34V19H195.172C194.025 19 193.125 18.7667 192.472 18.3C191.832 17.8333 191.512 17.1133 191.512 16.14C191.512 15.4867 191.745 14.9133 192.212 14.42C192.692 13.9133 193.352 13.3467 194.192 12.72L199.252 8.9H191.652V7H198.032C199.552 7 200.685 7.39333 201.432 8.18C202.192 8.96667 202.572 10.02 202.572 11.34ZM195.072 17H200.372V10.46L194.992 14.54C194.618 14.82 194.325 15.06 194.112 15.26C193.898 15.4467 193.792 15.7133 193.792 16.06C193.792 16.3933 193.918 16.6333 194.172 16.78C194.425 16.9267 194.725 17 195.072 17ZM205.764 19V7H212.524C214.031 7 215.131 7.36667 215.824 8.1C216.517 8.83333 216.864 9.9 216.864 11.3V19H214.664V11.06C214.664 10.2733 214.511 9.73333 214.204 9.44C213.897 9.14667 213.391 9 212.684 9H207.964V19H205.764ZM230.341 19H221.941C221.048 19 220.381 18.8133 219.941 18.44C219.514 18.0667 219.301 17.6 219.301 17.04C219.301 16.5867 219.414 16.1867 219.641 15.84C219.868 15.4933 220.268 15.1067 220.841 14.68L227.421 9.78C227.514 9.71333 227.581 9.64667 227.621 9.58C227.674 9.5 227.701 9.40667 227.701 9.3C227.701 9.16667 227.654 9.06667 227.561 9C227.481 8.93333 227.354 8.9 227.181 8.9H219.701V7H227.161C228.054 7 228.768 7.15333 229.301 7.46C229.834 7.75333 230.101 8.27333 230.101 9.02C230.101 9.43333 229.954 9.84 229.661 10.24C229.381 10.6267 228.914 11.0667 228.261 11.56L222.001 16.28C221.908 16.36 221.834 16.4333 221.781 16.5C221.728 16.5667 221.701 16.6467 221.701 16.74C221.701 16.8733 221.748 16.9667 221.841 17.02C221.934 17.0733 222.054 17.1 222.201 17.1H230.341V19ZM243.49 11.34V19H236.09C234.943 19 234.043 18.7667 233.39 18.3C232.75 17.8333 232.43 17.1133 232.43 16.14C232.43 15.4867 232.663 14.9133 233.13 14.42C233.61 13.9133 234.27 13.3467 235.11 12.72L240.17 8.9H232.57V7H238.95C240.47 7 241.603 7.39333 242.35 8.18C243.11 8.96667 243.49 10.02 243.49 11.34ZM235.99 17H241.29V10.46L235.91 14.54C235.536 14.82 235.243 15.06 235.03 15.26C234.816 15.4467 234.71 15.7133 234.71 16.06C234.71 16.3933 234.836 16.6333 235.09 16.78C235.343 16.9267 235.643 17 235.99 17ZM262.337 11.34V19H254.937C253.791 19 252.891 18.7667 252.237 18.3C251.597 17.8333 251.277 17.1133 251.277 16.14C251.277 15.4867 251.511 14.9133 251.977 14.42C252.457 13.9133 253.117 13.3467 253.957 12.72L259.017 8.9H251.417V7H257.797C259.317 7 260.451 7.39333 261.197 8.18C261.957 8.96667 262.337 10.02 262.337 11.34ZM254.837 17H260.137V10.46L254.757 14.54C254.384 14.82 254.091 15.06 253.877 15.26C253.664 15.4467 253.557 15.7133 253.557 16.06C253.557 16.3933 253.684 16.6333 253.937 16.78C254.191 16.9267 254.491 17 254.837 17ZM270.925 4H273.125V19H270.925V4ZM286.986 11.34V19H279.586C278.439 19 277.539 18.7667 276.886 18.3C276.246 17.8333 275.926 17.1133 275.926 16.14C275.926 15.4867 276.159 14.9133 276.626 14.42C277.106 13.9133 277.766 13.3467 278.606 12.72L283.666 8.9H276.066V7H282.446C283.966 7 285.099 7.39333 285.846 8.18C286.606 8.96667 286.986 10.02 286.986 11.34ZM279.486 17H284.786V10.46L279.406 14.54C279.032 14.82 278.739 15.06 278.526 15.26C278.312 15.4467 278.206 15.7133 278.206 16.06C278.206 16.3933 278.332 16.6333 278.586 16.78C278.839 16.9267 279.139 17 279.486 17ZM295.573 19V4H307.593V6H297.873V10.38H307.593V12.38H297.873V19H295.573ZM309.439 19V17H313.979V6.66C313.979 6.44667 313.926 6.28667 313.819 6.18C313.726 6.06 313.579 6 313.379 6H309.899V4H313.739C314.632 4 315.279 4.22 315.679 4.66C316.079 5.1 316.279 5.76 316.279 6.64V17H320.279V19H309.439Z" fill="#F3F3F3"/>
</svg>
