<svg width="801" height="132" viewBox="0 0 801 132" fill="none" xmlns="http://www.w3.org/2000/svg">
<path d="M229.371 88.7028C232.521 86.0125 232.893 81.2784 230.203 78.1289C227.513 74.9793 222.778 74.6069 219.629 77.2972L229.371 88.7028ZM176.5 124V131.5H179.267L181.371 129.703L176.5 124ZM0 131.5H176.5V116.5H0V131.5ZM181.371 129.703L229.371 88.7028L219.629 77.2972L171.629 118.297L181.371 129.703Z" fill="#38383F"/>
<path d="M188.5 10.5C194.1 10.5 198.417 11.8833 201.45 14.65C204.483 17.4167 206 21.2833 206 26.25V32.25C206 37.2167 204.5 41.0833 201.5 43.85C198.533 46.6167 194.117 48 188.25 48H171.5V10.5H188.5ZM189.25 15.5H177.25V43H189C192.467 43 195.117 42.2833 196.95 40.85C198.817 39.3833 199.75 36.9667 199.75 33.6V24.85C199.75 21.4833 198.833 19.0833 197 17.65C195.2 16.2167 192.617 15.5 189.25 15.5ZM240.371 34.9H216.771V37.35C216.771 39.35 217.388 40.8333 218.621 41.8C219.888 42.7667 221.805 43.25 224.371 43.25H239.421V48H225.121C223.055 48 221.155 47.7833 219.421 47.35C217.688 46.8833 216.205 46.1667 214.971 45.2C213.738 44.2333 212.771 43 212.071 41.5C211.371 40 211.021 38.2 211.021 36.1V30.85C211.021 26.45 212.171 23.1333 214.471 20.9C216.805 18.6667 220.171 17.55 224.571 17.55H227.321C231.688 17.55 234.955 18.5333 237.121 20.5C239.288 22.4667 240.371 25.4167 240.371 29.35V34.9ZM228.021 22.3H223.821C221.288 22.3 219.471 22.8667 218.371 24C217.305 25.1333 216.771 27.1667 216.771 30.1V30.35H234.621V28.6C234.621 26.3667 234.171 24.7667 233.271 23.8C232.371 22.8 230.621 22.3 228.021 22.3ZM261.6 48V10.5H267.35V48H261.6ZM276.371 48V18H293.271C297.038 18 299.788 18.9167 301.521 20.75C303.254 22.5833 304.121 25.25 304.121 28.75V48H298.621V28.15C298.621 26.1833 298.238 24.8333 297.471 24.1C296.704 23.3667 295.438 23 293.671 23H281.871V48H276.371ZM326.663 55.5H312.963V50.75H327.563C330.097 50.75 331.797 50.4167 332.663 49.75C333.53 49.0833 333.963 47.9667 333.963 46.4V45.5H323.213C319.213 45.5 316.147 44.4333 314.013 42.3C311.913 40.1667 310.863 37.0833 310.863 33.05V30.45C310.863 26.4167 311.913 23.3333 314.013 21.2C316.147 19.0667 319.213 18 323.213 18H339.463V45.05C339.463 48.75 338.397 51.4167 336.263 53.05C334.163 54.6833 330.963 55.5 326.663 55.5ZM323.713 40.5H333.963V23H323.713C321.113 23 319.28 23.5 318.213 24.5C317.147 25.5 316.613 27.25 316.613 29.75V33.8C316.613 36.3 317.147 38.05 318.213 39.05C319.28 40.0167 321.113 40.5 323.713 40.5ZM347.965 10.5H353.465V48H347.965V10.5ZM388.117 28.85V48H369.617C366.75 48 364.5 47.4167 362.867 46.25C361.267 45.0833 360.467 43.2833 360.467 40.85C360.467 39.2167 361.05 37.7833 362.217 36.55C363.417 35.2833 365.067 33.8667 367.167 32.3L379.817 22.75H360.817V18H376.767C380.567 18 383.4 18.9833 385.267 20.95C387.167 22.9167 388.117 25.55 388.117 28.85ZM369.367 43H382.617V26.65L369.167 36.85C368.233 37.55 367.5 38.15 366.967 38.65C366.433 39.1167 366.167 39.7833 366.167 40.65C366.167 41.4833 366.483 42.0833 367.117 42.45C367.75 42.8167 368.5 43 369.367 43ZM392.848 22.75V18H397.848V12.15H403.198V18H414.348V22.75H403.198V39.9C403.198 41.1667 403.464 42.05 403.998 42.55C404.531 43.0167 405.398 43.25 406.598 43.25H414.348V48H406.648C403.848 48 401.648 47.3 400.048 45.9C398.481 44.5 397.698 42.4 397.698 39.6V22.75H392.848ZM448.233 34.9H424.633V37.35C424.633 39.35 425.249 40.8333 426.483 41.8C427.749 42.7667 429.666 43.25 432.233 43.25H447.283V48H432.983C430.916 48 429.016 47.7833 427.283 47.35C425.549 46.8833 424.066 46.1667 422.833 45.2C421.599 44.2333 420.633 43 419.933 41.5C419.233 40 418.883 38.2 418.883 36.1V30.85C418.883 26.45 420.033 23.1333 422.333 20.9C424.666 18.6667 428.033 17.55 432.433 17.55H435.183C439.549 17.55 442.816 18.5333 444.983 20.5C447.149 22.4667 448.233 25.4167 448.233 29.35V34.9ZM435.883 22.3H431.683C429.149 22.3 427.333 22.8667 426.233 24C425.166 25.1333 424.633 27.1667 424.633 30.1V30.35H442.483V28.6C442.483 26.3667 442.033 24.7667 441.133 23.8C440.233 22.8 438.483 22.3 435.883 22.3ZM455.473 27.25C455.473 24.2167 456.423 21.9167 458.323 20.35C460.256 18.7833 462.689 18 465.623 18H474.323V22.75H465.373C463.806 22.75 462.673 23.05 461.973 23.65C461.306 24.2167 460.973 25.2667 460.973 26.8V48H455.473V27.25ZM479.301 27.25C479.301 24.2167 480.251 21.9167 482.151 20.35C484.084 18.7833 486.517 18 489.451 18H497.151V22.75H489.201C487.634 22.75 486.501 23.05 485.801 23.65C485.134 24.2167 484.801 25.2667 484.801 26.8V48H479.301V27.25ZM523.713 28.85V48H505.213C502.346 48 500.096 47.4167 498.463 46.25C496.863 45.0833 496.063 43.2833 496.063 40.85C496.063 39.2167 496.646 37.7833 497.813 36.55C499.013 35.2833 500.663 33.8667 502.763 32.3L515.413 22.75H496.413V18H512.363C516.163 18 518.996 18.9833 520.863 20.95C522.763 22.9167 523.713 25.55 523.713 28.85ZM504.963 43H518.213V26.65L504.763 36.85C503.829 37.55 503.096 38.15 502.563 38.65C502.029 39.1167 501.763 39.7833 501.763 40.65C501.763 41.4833 502.079 42.0833 502.713 42.45C503.346 42.8167 504.096 43 504.963 43ZM570.832 28.85V48H552.332C549.465 48 547.215 47.4167 545.582 46.25C543.982 45.0833 543.182 43.2833 543.182 40.85C543.182 39.2167 543.765 37.7833 544.932 36.55C546.132 35.2833 547.782 33.8667 549.882 32.3L562.532 22.75H543.532V18H559.482C563.282 18 566.115 18.9833 567.982 20.95C569.882 22.9167 570.832 25.55 570.832 28.85ZM552.082 43H565.332V26.65L551.882 36.85C550.948 37.55 550.215 38.15 549.682 38.65C549.148 39.1167 548.882 39.7833 548.882 40.65C548.882 41.4833 549.198 42.0833 549.832 42.45C550.465 42.8167 551.215 43 552.082 43ZM579.313 10.5H584.813V48H579.313V10.5ZM606.303 48V18H641.003C644.736 18 647.469 18.95 649.203 20.85C650.936 22.75 651.803 25.1833 651.803 28.15V48H646.303V27.9C646.303 26.0333 645.919 24.75 645.153 24.05C644.386 23.35 643.119 23 641.353 23H631.803V48H626.303V23H611.803V48H606.303ZM687.568 18V48H670.668C666.902 48 664.152 47.0833 662.418 45.25C660.685 43.4167 659.818 40.75 659.818 37.25V18H665.318V37.85C665.318 39.8167 665.702 41.1667 666.468 41.9C667.235 42.6333 668.502 43 670.268 43H682.068V18H687.568ZM695.561 48V18H712.461C716.227 18 718.977 18.9167 720.711 20.75C722.444 22.5833 723.311 25.25 723.311 28.75V48H717.811V28.15C717.811 26.1833 717.427 24.8333 716.661 24.1C715.894 23.3667 714.627 23 712.861 23H701.061V48H695.561ZM759.653 10.5V48H742.903C738.903 48 735.836 46.8833 733.703 44.65C731.603 42.4167 730.553 39.2167 730.553 35.05V30.95C730.553 26.7833 731.603 23.5833 733.703 21.35C735.836 19.1167 738.903 18 742.903 18H754.153V10.5H759.653ZM743.403 43.25H754.153V22.75H743.403C740.803 22.75 738.969 23.3333 737.903 24.5C736.836 25.6333 736.303 27.5333 736.303 30.2V35.75C736.303 38.45 736.836 40.3833 737.903 41.55C738.969 42.6833 740.803 43.25 743.403 43.25ZM797.731 30.55V35.45C797.731 39.6167 796.581 42.8667 794.281 45.2C791.981 47.5 788.614 48.65 784.181 48.65H780.431C775.764 48.65 772.331 47.5 770.131 45.2C767.964 42.8667 766.881 39.6167 766.881 35.45V30.55C766.881 26.3833 767.964 23.15 770.131 20.85C772.331 18.5167 775.764 17.35 780.431 17.35H784.181C788.614 17.35 791.981 18.5167 794.281 20.85C796.581 23.15 797.731 26.3833 797.731 30.55ZM791.981 29.8C791.981 27.1333 791.464 25.1833 790.431 23.95C789.431 22.7167 787.581 22.1 784.881 22.1H779.681C777.148 22.1 775.331 22.7167 774.231 23.95C773.164 25.1833 772.631 27.1333 772.631 29.8V36.2C772.631 38.8667 773.164 40.8167 774.231 42.05C775.331 43.2833 777.148 43.9 779.681 43.9H784.881C787.581 43.9 789.431 43.2833 790.431 42.05C791.464 40.8167 791.981 38.8667 791.981 36.2V29.8Z" fill="#F3F3F3"/>
</svg>
