<svg width="780" height="118" viewBox="0 0 780 118" fill="none" xmlns="http://www.w3.org/2000/svg">
<path d="M8 7.5L8 73.25C8 81.5343 14.6653 88.25 22.9495 88.25C53.5014 88.25 124.392 88.25 174 88.25" stroke="#38383F" stroke-width="15" stroke-linecap="round"/>
<path d="M230.987 106V68.5H236.737V101H259.037V106H230.987ZM293.156 88.55V93.45C293.156 97.6167 292.006 100.867 289.706 103.2C287.406 105.5 284.039 106.65 279.606 106.65H275.856C271.189 106.65 267.756 105.5 265.556 103.2C263.389 100.867 262.306 97.6167 262.306 93.45V88.55C262.306 84.3833 263.389 81.15 265.556 78.85C267.756 76.5167 271.189 75.35 275.856 75.35H279.606C284.039 75.35 287.406 76.5167 289.706 78.85C292.006 81.15 293.156 84.3833 293.156 88.55ZM287.406 87.8C287.406 85.1333 286.889 83.1833 285.856 81.95C284.856 80.7167 283.006 80.1 280.306 80.1H275.106C272.572 80.1 270.756 80.7167 269.656 81.95C268.589 83.1833 268.056 85.1333 268.056 87.8V94.2C268.056 96.8667 268.589 98.8167 269.656 100.05C270.756 101.283 272.572 101.9 275.106 101.9H280.306C283.006 101.9 284.856 101.283 285.856 100.05C286.889 98.8167 287.406 96.8667 287.406 94.2V87.8ZM314.959 94.05L307.609 92.5C304.809 91.9 302.609 90.9667 301.009 89.7C299.443 88.4 298.659 86.5833 298.659 84.25C298.659 81.7833 299.576 79.8 301.409 78.3C303.243 76.7667 305.993 76 309.659 76H324.759V80.75H308.659C306.959 80.75 305.809 81.0667 305.209 81.7C304.609 82.3333 304.309 83.0833 304.309 83.95C304.309 84.8833 304.626 85.6333 305.259 86.2C305.893 86.7333 307.043 87.1667 308.709 87.5L315.959 89C319.059 89.6333 321.459 90.5667 323.159 91.8C324.893 93 325.759 94.85 325.759 97.35C325.759 99.95 324.809 102.05 322.909 103.65C321.009 105.217 317.909 106 313.609 106H299.159V101.25H314.909C317.009 101.25 318.426 100.933 319.159 100.3C319.893 99.6333 320.259 98.7833 320.259 97.75C320.259 96.75 319.876 96 319.109 95.5C318.343 94.9667 316.959 94.4833 314.959 94.05ZM344.745 85.25C344.745 82.2167 345.695 79.9167 347.595 78.35C349.528 76.7833 351.962 76 354.895 76H363.595V80.75H354.645C353.078 80.75 351.945 81.05 351.245 81.65C350.578 82.2167 350.245 83.2667 350.245 84.8V106H344.745V85.25ZM396.197 92.9H372.597V95.35C372.597 97.35 373.213 98.8333 374.447 99.8C375.713 100.767 377.63 101.25 380.197 101.25H395.247V106H380.947C378.88 106 376.98 105.783 375.247 105.35C373.513 104.883 372.03 104.167 370.797 103.2C369.563 102.233 368.597 101 367.897 99.5C367.197 98 366.847 96.2 366.847 94.1V88.85C366.847 84.45 367.997 81.1333 370.297 78.9C372.63 76.6667 375.997 75.55 380.397 75.55H383.147C387.513 75.55 390.78 76.5333 392.947 78.5C395.113 80.4667 396.197 83.4167 396.197 87.35V92.9ZM383.847 80.3H379.647C377.113 80.3 375.297 80.8667 374.197 82C373.13 83.1333 372.597 85.1667 372.597 88.1V88.35H390.447V86.6C390.447 84.3667 389.997 82.7667 389.097 81.8C388.197 80.8 386.447 80.3 383.847 80.3ZM415.887 98.4C416.02 98.6333 416.17 98.8167 416.337 98.95C416.503 99.0833 416.67 99.15 416.837 99.15C417.003 99.15 417.17 99.0833 417.337 98.95C417.503 98.8167 417.637 98.6333 417.737 98.4L426.737 76H432.787L419.937 106.65C418.837 109.25 417.47 111.033 415.837 112C414.237 113 412.087 113.5 409.387 113.5H402.487V108.9H409.337C410.937 108.9 412.12 108.633 412.887 108.1C413.653 107.6 414.237 106.883 414.637 105.95L415.637 103.5H415.387C414.453 103.5 413.57 103.25 412.737 102.75C411.903 102.217 411.17 101.267 410.537 99.9L399.687 76H405.987L415.887 98.4ZM464.654 92.9H441.054V95.35C441.054 97.35 441.67 98.8333 442.904 99.8C444.17 100.767 446.087 101.25 448.654 101.25H463.704V106H449.404C447.337 106 445.437 105.783 443.704 105.35C441.97 104.883 440.487 104.167 439.254 103.2C438.02 102.233 437.054 101 436.354 99.5C435.654 98 435.304 96.2 435.304 94.1V88.85C435.304 84.45 436.454 81.1333 438.754 78.9C441.087 76.6667 444.454 75.55 448.854 75.55H451.604C455.97 75.55 459.237 76.5333 461.404 78.5C463.57 80.4667 464.654 83.4167 464.654 87.35V92.9ZM452.304 80.3H448.104C445.57 80.3 443.754 80.8667 442.654 82C441.587 83.1333 441.054 85.1667 441.054 88.1V88.35H458.904V86.6C458.904 84.3667 458.454 82.7667 457.554 81.8C456.654 80.8 454.904 80.3 452.304 80.3ZM486.707 94.05L479.357 92.5C476.557 91.9 474.357 90.9667 472.757 89.7C471.191 88.4 470.407 86.5833 470.407 84.25C470.407 81.7833 471.257 79.8 472.957 78.3C474.691 76.7667 477.507 76 481.407 76H496.007V80.75H480.407C478.707 80.75 477.557 81.0667 476.957 81.7C476.357 82.3333 476.057 83.0833 476.057 83.95C476.057 84.8833 476.374 85.6333 477.007 86.2C477.641 86.7333 478.791 87.1667 480.457 87.5L487.707 89C490.807 89.6333 493.207 90.5667 494.907 91.8C496.641 93 497.507 94.85 497.507 97.35C497.507 99.95 496.591 102.05 494.757 103.65C492.924 105.217 489.791 106 485.357 106H462.907V101.25H486.657C488.757 101.25 490.174 100.933 490.907 100.3C491.641 99.6333 492.007 98.7833 492.007 97.75C492.007 96.75 491.624 96 490.857 95.5C490.091 94.9667 488.707 94.4833 486.707 94.05ZM544.824 68.5V106H528.074C524.074 106 521.007 104.883 518.874 102.65C516.774 100.417 515.724 97.2167 515.724 93.05V88.95C515.724 84.7833 516.774 81.5833 518.874 79.35C521.007 77.1167 524.074 76 528.074 76H539.324V68.5H544.824ZM528.574 101.25H539.324V80.75H528.574C525.974 80.75 524.14 81.3333 523.074 82.5C522.007 83.6333 521.474 85.5333 521.474 88.2V93.75C521.474 96.45 522.007 98.3833 523.074 99.55C524.14 100.683 525.974 101.25 528.574 101.25ZM581.402 92.9H557.802V95.35C557.802 97.35 558.418 98.8333 559.652 99.8C560.918 100.767 562.835 101.25 565.402 101.25H580.452V106H566.152C564.085 106 562.185 105.783 560.452 105.35C558.718 104.883 557.235 104.167 556.002 103.2C554.768 102.233 553.802 101 553.102 99.5C552.402 98 552.052 96.2 552.052 94.1V88.85C552.052 84.45 553.202 81.1333 555.502 78.9C557.835 76.6667 561.202 75.55 565.602 75.55H568.352C572.718 75.55 575.985 76.5333 578.152 78.5C580.318 80.4667 581.402 83.4167 581.402 87.35V92.9ZM569.052 80.3H564.852C562.318 80.3 560.502 80.8667 559.402 82C558.335 83.1333 557.802 85.1667 557.802 88.1V88.35H575.652V86.6C575.652 84.3667 575.202 82.7667 574.302 81.8C573.402 80.8 571.652 80.3 569.052 80.3ZM602.13 68.5H607.63V106H602.13V68.5ZM642.282 86.85V106H623.782C620.915 106 618.665 105.417 617.032 104.25C615.432 103.083 614.632 101.283 614.632 98.85C614.632 97.2167 615.215 95.7833 616.382 94.55C617.582 93.2833 619.232 91.8667 621.332 90.3L633.982 80.75H614.982V76H630.932C634.732 76 637.565 76.9833 639.432 78.95C641.332 80.9167 642.282 83.55 642.282 86.85ZM623.532 101H636.782V84.65L623.332 94.85C622.399 95.55 621.665 96.15 621.132 96.65C620.599 97.1167 620.332 97.7833 620.332 98.65C620.332 99.4833 620.649 100.083 621.282 100.45C621.915 100.817 622.665 101 623.532 101ZM663.751 106V68.5H693.801V73.5H669.501V84.45H693.801V89.45H669.501V106H663.751ZM698.415 106V101H709.765V75.15C709.765 74.6167 709.632 74.2167 709.365 73.95C709.132 73.65 708.765 73.5 708.265 73.5H699.565V68.5H709.165C711.398 68.5 713.015 69.05 714.015 70.15C715.015 71.25 715.515 72.9 715.515 75.1V101H725.515V106H698.415Z" fill="#F3F3F3"/>
</svg>
