<svg width="734" height="253" viewBox="0 0 734 253" fill="none" xmlns="http://www.w3.org/2000/svg">
<path d="M621.759 44.5004C617.617 44.5004 614.259 41.1425 614.259 37.0004C614.259 32.8583 617.617 29.5004 621.759 29.5004L621.759 44.5004ZM668 205.318L675.5 205.318L668 205.318ZM653 37.0002L653 29.5002L653 37.0002ZM668 52.0002L675.5 52.0002L668 52.0002ZM653 44.5002L621.759 44.5004L621.759 29.5004L653 29.5002L653 44.5002ZM578 212.817L653 212.817L653 227.817L578 227.817L578 212.817ZM660.5 205.317L660.5 52.0002L675.5 52.0002L675.5 205.318L660.5 205.317ZM653 212.817C657.142 212.817 660.5 209.46 660.5 205.317L675.5 205.318C675.5 217.744 665.426 227.817 653 227.817L653 212.817ZM653 29.5002C665.427 29.5001 675.5 39.5738 675.5 52.0002L660.5 52.0002C660.5 47.858 657.143 44.5002 653 44.5002L653 29.5002Z" fill="#38383F"/>
<path d="M11.021 48.0049V10.5049H41.071V15.5049H16.771V26.4549H41.071V31.4549H16.771V43.0049H41.071V48.0049H11.021ZM48.9116 10.5049H54.4116V48.0049H48.9116V10.5049ZM75.9019 48.0049V18.0049H110.602C114.335 18.0049 117.069 18.9549 118.802 20.8549C120.535 22.7549 121.402 25.1882 121.402 28.1549V48.0049H115.902V27.9049C115.902 26.0382 115.519 24.7549 114.752 24.0549C113.985 23.3549 112.719 23.0049 110.952 23.0049H101.402V48.0049H95.9019V23.0049H81.4019V48.0049H75.9019ZM158.017 34.9049H134.417V37.3549C134.417 39.3549 135.034 40.8382 136.267 41.8049C137.534 42.7715 139.451 43.2549 142.017 43.2549H157.067V48.0049H142.767C140.701 48.0049 138.801 47.7882 137.067 47.3549C135.334 46.8882 133.851 46.1715 132.617 45.2049C131.384 44.2382 130.417 43.0049 129.717 41.5049C129.017 40.0049 128.667 38.2049 128.667 36.1049V30.8549C128.667 26.4549 129.817 23.1382 132.117 20.9049C134.451 18.6715 137.817 17.5549 142.217 17.5549H144.967C149.334 17.5549 152.601 18.5382 154.767 20.5049C156.934 22.4715 158.017 25.4215 158.017 29.3549V34.9049ZM145.667 22.3049H141.467C138.934 22.3049 137.117 22.8715 136.017 24.0049C134.951 25.1382 134.417 27.1715 134.417 30.1049V30.3549H152.267V28.6049C152.267 26.3715 151.817 24.7715 150.917 23.8049C150.017 22.8049 148.267 22.3049 145.667 22.3049ZM171.757 13.9049H166.257V8.50488H171.757V13.9049ZM166.257 18.0049H171.757V47.5049C171.757 50.3049 171.024 52.3382 169.557 53.6049C168.091 54.8715 165.891 55.5049 162.957 55.5049H160.107V50.7549H163.607C164.541 50.7549 165.207 50.5382 165.607 50.1049C166.041 49.6715 166.257 48.9382 166.257 47.9049V18.0049ZM209.859 30.5549V35.4549C209.859 39.6215 208.709 42.8715 206.409 45.2049C204.109 47.5049 200.743 48.6549 196.309 48.6549H192.559C187.893 48.6549 184.459 47.5049 182.259 45.2049C180.093 42.8715 179.009 39.6215 179.009 35.4549V30.5549C179.009 26.3882 180.093 23.1549 182.259 20.8549C184.459 18.5215 187.893 17.3549 192.559 17.3549H196.309C200.743 17.3549 204.109 18.5215 206.409 20.8549C208.709 23.1549 209.859 26.3882 209.859 30.5549ZM204.109 29.8049C204.109 27.1382 203.593 25.1882 202.559 23.9549C201.559 22.7215 199.709 22.1049 197.009 22.1049H191.809C189.276 22.1049 187.459 22.7215 186.359 23.9549C185.293 25.1882 184.759 27.1382 184.759 29.8049V36.2049C184.759 38.8715 185.293 40.8215 186.359 42.0549C187.459 43.2882 189.276 43.9049 191.809 43.9049H197.009C199.709 43.9049 201.559 43.2882 202.559 42.0549C203.593 40.8215 204.109 38.8715 204.109 36.2049V29.8049ZM217.113 27.2549C217.113 24.2215 218.063 21.9215 219.963 20.3549C221.896 18.7882 224.329 18.0049 227.263 18.0049H235.963V22.7549H227.013C225.446 22.7549 224.313 23.0549 223.613 23.6549C222.946 24.2215 222.613 25.2715 222.613 26.8049V48.0049H217.113V27.2549ZM266.329 22.7549C263.696 22.7549 261.796 23.2715 260.629 24.3049C259.496 25.3049 258.929 27.1382 258.929 29.8049V36.1549C258.929 38.8549 259.496 40.7215 260.629 41.7549C261.796 42.7549 263.696 43.2549 266.329 43.2549H279.279V48.0049H266.079C262.246 48.0049 259.129 46.9549 256.729 44.8549C254.363 42.7549 253.179 39.6215 253.179 35.4549V30.5549C253.179 26.3882 254.363 23.2549 256.729 21.1549C259.129 19.0549 262.246 18.0049 266.079 18.0049H279.279V22.7549H266.329ZM315.133 30.5549V35.4549C315.133 39.6215 313.983 42.8715 311.683 45.2049C309.383 47.5049 306.016 48.6549 301.583 48.6549H297.833C293.166 48.6549 289.733 47.5049 287.533 45.2049C285.366 42.8715 284.283 39.6215 284.283 35.4549V30.5549C284.283 26.3882 285.366 23.1549 287.533 20.8549C289.733 18.5215 293.166 17.3549 297.833 17.3549H301.583C306.016 17.3549 309.383 18.5215 311.683 20.8549C313.983 23.1549 315.133 26.3882 315.133 30.5549ZM309.383 29.8049C309.383 27.1382 308.866 25.1882 307.833 23.9549C306.833 22.7215 304.983 22.1049 302.283 22.1049H297.083C294.549 22.1049 292.733 22.7215 291.633 23.9549C290.566 25.1882 290.033 27.1382 290.033 29.8049V36.2049C290.033 38.8715 290.566 40.8215 291.633 42.0549C292.733 43.2882 294.549 43.9049 297.083 43.9049H302.283C304.983 43.9049 306.833 43.2882 307.833 42.0549C308.866 40.8215 309.383 38.8715 309.383 36.2049V29.8049ZM322.386 48.0049V18.0049H357.086C360.82 18.0049 363.553 18.9549 365.286 20.8549C367.02 22.7549 367.886 25.1882 367.886 28.1549V48.0049H362.386V27.9049C362.386 26.0382 362.003 24.7549 361.236 24.0549C360.47 23.3549 359.203 23.0049 357.436 23.0049H347.886V48.0049H342.386V23.0049H327.886V48.0049H322.386ZM375.902 48.0049V10.5049H381.402V18.0049H392.652C396.652 18.0049 399.702 19.1215 401.802 21.3549C403.935 23.5882 405.002 26.7882 405.002 30.9549V35.0549C405.002 39.2215 403.935 42.4215 401.802 44.6549C399.702 46.8882 396.652 48.0049 392.652 48.0049H375.902ZM392.152 22.7549H381.402V43.2549H392.152C394.752 43.2549 396.585 42.6882 397.652 41.5549C398.719 40.3882 399.252 38.4715 399.252 35.8049V30.2549C399.252 27.5549 398.719 25.6382 397.652 24.5049C396.585 23.3382 394.752 22.7549 392.152 22.7549ZM439.98 18.0049V48.0049H423.08C419.313 48.0049 416.563 47.0882 414.83 45.2549C413.097 43.4215 412.23 40.7549 412.23 37.2549V18.0049H417.73V37.8549C417.73 39.8215 418.113 41.1715 418.88 41.9049C419.647 42.6382 420.913 43.0049 422.68 43.0049H434.48V18.0049H439.98ZM462.522 36.0549L455.172 34.5049C452.372 33.9049 450.172 32.9715 448.572 31.7049C447.006 30.4049 446.222 28.5882 446.222 26.2549C446.222 23.7882 447.072 21.8049 448.772 20.3049C450.506 18.7715 453.322 18.0049 457.222 18.0049H478.322V22.7549H456.222C454.522 22.7549 453.372 23.0715 452.772 23.7049C452.172 24.3382 451.872 25.0882 451.872 25.9549C451.872 26.8882 452.189 27.6382 452.822 28.2049C453.456 28.7382 454.606 29.1715 456.272 29.5049L463.522 31.0049C466.622 31.6382 469.022 32.5715 470.722 33.8049C472.456 35.0049 473.322 36.8549 473.322 39.3549C473.322 41.9549 472.406 44.0549 470.572 45.6549C468.739 47.2215 465.606 48.0049 461.172 48.0049H447.222V43.2549H462.472C464.572 43.2549 465.989 42.9382 466.722 42.3049C467.456 41.6382 467.822 40.7882 467.822 39.7549C467.822 38.7549 467.439 38.0049 466.672 37.5049C465.906 36.9715 464.522 36.4882 462.522 36.0549ZM475.582 22.7549V18.0049H480.582V12.1549H485.932V18.0049H503.582V22.7549H485.932V39.9049C485.932 41.1715 486.198 42.0549 486.732 42.5549C487.265 43.0215 488.132 43.2549 489.332 43.2549H497.082V48.0049H489.082C486.282 48.0049 484.132 47.3715 482.632 46.1049C481.165 44.8049 480.432 42.7549 480.432 39.9549V22.7549H475.582ZM508.318 13.9049H502.818V8.50488H508.318V13.9049ZM502.818 48.0049V18.0049H508.318V48.0049H502.818ZM516.82 48.0049V10.5049H522.32V18.0049H533.57C537.57 18.0049 540.62 19.1215 542.72 21.3549C544.853 23.5882 545.92 26.7882 545.92 30.9549V35.0549C545.92 39.2215 544.853 42.4215 542.72 44.6549C540.62 46.8882 537.57 48.0049 533.57 48.0049H516.82ZM533.07 22.7549H522.32V43.2549H533.07C535.67 43.2549 537.503 42.6882 538.57 41.5549C539.636 40.3882 540.17 38.4715 540.17 35.8049V30.2549C540.17 27.5549 539.636 25.6382 538.57 24.5049C537.503 23.3382 535.67 22.7549 533.07 22.7549ZM553.648 10.5049H559.148V48.0049H553.648V10.5049ZM596.25 34.9049H572.65V37.3549C572.65 39.3549 573.267 40.8382 574.5 41.8049C575.767 42.7715 577.683 43.2549 580.25 43.2549H595.3V48.0049H581C578.933 48.0049 577.033 47.7882 575.3 47.3549C573.567 46.8882 572.083 46.1715 570.85 45.2049C569.617 44.2382 568.65 43.0049 567.95 41.5049C567.25 40.0049 566.9 38.2049 566.9 36.1049V30.8549C566.9 26.4549 568.05 23.1382 570.35 20.9049C572.683 18.6715 576.05 17.5549 580.45 17.5549H583.2C587.567 17.5549 590.833 18.5382 593 20.5049C595.167 22.4715 596.25 25.4215 596.25 29.3549V34.9049ZM583.9 22.3049H579.7C577.167 22.3049 575.35 22.8715 574.25 24.0049C573.183 25.1382 572.65 27.1715 572.65 30.1049V30.3549H590.5V28.6049C590.5 26.3715 590.05 24.7715 589.15 23.8049C588.25 22.8049 586.5 22.3049 583.9 22.3049ZM172.422 94.9049H148.822V97.3549C148.822 99.3549 149.438 100.838 150.672 101.805C151.938 102.772 153.855 103.255 156.422 103.255H171.472V108.005H157.172C155.105 108.005 153.205 107.788 151.472 107.355C149.738 106.888 148.255 106.172 147.022 105.205C145.788 104.238 144.822 103.005 144.122 101.505C143.422 100.005 143.072 98.2049 143.072 96.1049V90.8549C143.072 86.4549 144.222 83.1382 146.522 80.9049C148.855 78.6715 152.222 77.5549 156.622 77.5549H159.372C163.738 77.5549 167.005 78.5382 169.172 80.5049C171.338 82.4715 172.422 85.4215 172.422 89.3549V94.9049ZM160.072 82.3049H155.872C153.338 82.3049 151.522 82.8715 150.422 84.0049C149.355 85.1382 148.822 87.1715 148.822 90.1049V90.3549H166.672V88.6049C166.672 86.3715 166.222 84.7715 165.322 83.8049C164.422 82.8049 162.672 82.3049 160.072 82.3049ZM194.475 96.0549L187.125 94.5049C184.325 93.9049 182.125 92.9715 180.525 91.7049C178.959 90.4049 178.175 88.5882 178.175 86.2549C178.175 83.7882 179.025 81.8049 180.725 80.3049C182.459 78.7715 185.275 78.0049 189.175 78.0049H203.775V82.7549H188.175C186.475 82.7549 185.325 83.0715 184.725 83.7049C184.125 84.3382 183.825 85.0882 183.825 85.9549C183.825 86.8882 184.142 87.6382 184.775 88.2049C185.409 88.7382 186.559 89.1715 188.225 89.5049L195.475 91.0049C198.575 91.6382 200.975 92.5715 202.675 93.8049C204.409 95.0049 205.275 96.8549 205.275 99.3549C205.275 101.955 204.359 104.055 202.525 105.655C200.692 107.222 197.559 108.005 193.125 108.005H170.675V103.255H194.425C196.525 103.255 197.942 102.938 198.675 102.305C199.409 101.638 199.775 100.788 199.775 99.7549C199.775 98.7549 199.392 98.0049 198.625 97.5049C197.859 96.9715 196.475 96.4882 194.475 96.0549ZM252.842 94.9049H229.242V97.3549C229.242 99.3549 229.858 100.838 231.092 101.805C232.358 102.772 234.275 103.255 236.842 103.255H251.892V108.005H237.592C235.525 108.005 233.625 107.788 231.892 107.355C230.158 106.888 228.675 106.172 227.442 105.205C226.208 104.238 225.242 103.005 224.542 101.505C223.842 100.005 223.492 98.2049 223.492 96.1049V90.8549C223.492 86.4549 224.642 83.1382 226.942 80.9049C229.275 78.6715 232.642 77.5549 237.042 77.5549H239.792C244.158 77.5549 247.425 78.5382 249.592 80.5049C251.758 82.4715 252.842 85.4215 252.842 89.3549V94.9049ZM240.492 82.3049H236.292C233.758 82.3049 231.942 82.8715 230.842 84.0049C229.775 85.1382 229.242 87.1715 229.242 90.1049V90.3549H247.092V88.6049C247.092 86.3715 246.642 84.7715 245.742 83.8049C244.842 82.8049 243.092 82.3049 240.492 82.3049ZM260.582 70.5049H266.082V108.005H260.582V70.5049ZM315.922 70.5049V108.005H299.172C295.172 108.005 292.105 106.888 289.972 104.655C287.872 102.422 286.822 99.2215 286.822 95.0549V90.9549C286.822 86.7882 287.872 83.5882 289.972 81.3549C292.105 79.1215 295.172 78.0049 299.172 78.0049H310.422V70.5049H315.922ZM299.672 103.255H310.422V82.7549H299.672C297.072 82.7549 295.238 83.3382 294.172 84.5049C293.105 85.6382 292.572 87.5382 292.572 90.2049V95.7549C292.572 98.4549 293.105 100.388 294.172 101.555C295.238 102.688 297.072 103.255 299.672 103.255ZM329.9 73.9049H324.4V68.5049H329.9V73.9049ZM324.4 108.005V78.0049H329.9V108.005H324.4ZM338.402 108.005V78.0049H355.302C359.069 78.0049 361.819 78.9215 363.552 80.7549C365.285 82.5882 366.152 85.2549 366.152 88.7549V108.005H360.652V88.1549C360.652 86.1882 360.269 84.8382 359.502 84.1049C358.735 83.3715 357.469 83.0049 355.702 83.0049H343.902V108.005H338.402ZM402.744 94.9049H379.144V97.3549C379.144 99.3549 379.761 100.838 380.994 101.805C382.261 102.772 384.177 103.255 386.744 103.255H401.794V108.005H387.494C385.427 108.005 383.527 107.788 381.794 107.355C380.061 106.888 378.577 106.172 377.344 105.205C376.111 104.238 375.144 103.005 374.444 101.505C373.744 100.005 373.394 98.2049 373.394 96.1049V90.8549C373.394 86.4549 374.544 83.1382 376.844 80.9049C379.177 78.6715 382.544 77.5549 386.944 77.5549H389.694C394.061 77.5549 397.327 78.5382 399.494 80.5049C401.661 82.4715 402.744 85.4215 402.744 89.3549V94.9049ZM390.394 82.3049H386.194C383.661 82.3049 381.844 82.8715 380.744 84.0049C379.677 85.1382 379.144 87.1715 379.144 90.1049V90.3549H396.994V88.6049C396.994 86.3715 396.544 84.7715 395.644 83.8049C394.744 82.8049 392.994 82.3049 390.394 82.3049ZM409.984 87.2549C409.984 84.2215 410.934 81.9215 412.834 80.3549C414.767 78.7882 417.201 78.0049 420.134 78.0049H428.834V82.7549H419.884C418.317 82.7549 417.184 83.0549 416.484 83.6549C415.817 84.2215 415.484 85.2715 415.484 86.8049V108.005H409.984V87.2549ZM462.935 90.5549V95.4549C462.935 99.6215 461.785 102.872 459.485 105.205C457.185 107.505 453.819 108.655 449.385 108.655H445.635C440.969 108.655 437.535 107.505 435.335 105.205C433.169 102.872 432.085 99.6215 432.085 95.4549V90.5549C432.085 86.3882 433.169 83.1549 435.335 80.8549C437.535 78.5215 440.969 77.3549 445.635 77.3549H449.385C453.819 77.3549 457.185 78.5215 459.485 80.8549C461.785 83.1549 462.935 86.3882 462.935 90.5549ZM457.185 89.8049C457.185 87.1382 456.669 85.1882 455.635 83.9549C454.635 82.7215 452.785 82.1049 450.085 82.1049H444.885C442.352 82.1049 440.535 82.7215 439.435 83.9549C438.369 85.1882 437.835 87.1382 437.835 89.8049V96.2049C437.835 98.8715 438.369 100.822 439.435 102.055C440.535 103.288 442.352 103.905 444.885 103.905H450.085C452.785 103.905 454.635 103.288 455.635 102.055C456.669 100.822 457.185 98.8715 457.185 96.2049V89.8049Z" fill="#F3F3F3"/>
</svg>
