<svg xmlns="http://www.w3.org/2000/svg" viewBox="0 0 524 272">
  <path fill="none" d="M205.648 253.574C248.939 253.574 257.279 253.574 300.569 254.765C331.889 255.627 355.028 255.1 386.356 255.559L457.051 253.574C457.051 253.574 514.657 250.139 515.434 222.595C515.672 214.134 514.113 207.929 506 205.517H381.988C381.988 205.517 282.313 209.091 276.74 200.751C268.612 188.588 251.584 185.055 239.407 189.631C222.933 195.821 225.947 173.359 212.003 162.623C155.154 118.858 102.784 58.9645 87.2943 29.5746C82.5283 20.5316 81.3642 9.28458 65.8476 8.12778C43.4843 6.46053 12.628 21.6315 8.25919 23.2202C3.89042 24.8089 35.6632 95.5036 35.6632 95.5036C38.2531 95.9983 43.0533 97.1483 44.0036 99.8724C55.9184 134.028 49.961 159.049 61.0815 196.78C72.3446 234.994 82.5251 250.484 122.244 253.574C128.739 254.079 150.312 254.982 156.797 254.368C167.808 253.325 187.044 244.242 198.102 244.439C202.795 244.523 200.954 253.574 205.648 253.574Z" stroke="#F3F3F3" stroke-width="15" stroke-linejoin="round"/>

<path fill="none" d="M310.648 254.574C248.939 253.574 257.279 253.574 300.569 254.765C331.889 255.627 355.028 255.1 386.356 255.559L457.051 253.574C457.051 253.574 514.657 250.139 515.434 222.595C515.672 214.134 514.113 207.929 506 205.517H381.988C381.988 205.517 282.313 209.091 276.74 200.751C268.612 188.588 251.584 185.055 239.407 189.631C222.933 195.821 225.947 173.359 212.003 162.623C155.154 118.858 102.784 58.9645 87.2943 29.5746C82.5283 20.5316 81.3642 9.28458 65.8476 8.12778C43.4843 6.46053 12.628 21.6315 8.25919 23.2202C3.89042 24.8089 35.6632 95.5036 35.6632 95.5036C38.2531 95.9983 43.0533 97.1483 44.0036 99.8724C55.9184 134.028 49.961 159.049 61.0815 196.78C72.3446 234.994 82.5251 250.484 122.244 253.574C128.739 254.079 150.312 254.982 156.797 254.368C167.808 253.325 187.044 244.242 198.102 244.439C202.795 244.523 200.954 253.574 205.648 253.574Z" stroke="#E10600" stroke-width="15" stroke-dasharray="1310" stroke-dashoffset="-88"/>

<path fill="none" d="M310.648 254.574C248.939 253.574 257.279 253.574 300.569 254.765C331.889 255.627 355.028 255.1 386.356 255.559L457.051 253.574C457.051 253.574 514.657 250.139 515.434 222.595C515.672 214.134 514.113 207.929 506 205.517H381.988C381.988 205.517 282.313 209.091 276.74 200.751C268.612 188.588 251.584 185.055 239.407 189.631C222.933 195.821 225.947 173.359 212.003 162.623C155.154 118.858 102.784 58.9645 87.2943 29.5746C82.5283 20.5316 81.3642 9.28458 65.8476 8.12778C43.4843 6.46053 12.628 21.6315 8.25919 23.2202C3.89042 24.8089 35.6632 95.5036 35.6632 95.5036C38.2531 95.9983 43.0533 97.1483 44.0036 99.8724C55.9184 134.028 49.961 159.049 61.0815 196.78C72.3446 234.994 82.5251 250.484 122.244 253.574C128.739 254.079 150.312 254.982 156.797 254.368C167.808 253.325 187.044 244.242 198.102 244.439C202.795 244.523 200.954 253.574 205.648 253.574Z" stroke="#FBD701" stroke-width="15" stroke-dasharray="1310" stroke-dashoffset="-325"/>

<path fill="none" d="M310.648 254.574C248.939 253.574 257.279 253.574 300.569 254.765C331.889 255.627 355.028 255.1 386.356 255.559L457.051 253.574C457.051 253.574 514.657 250.139 515.434 222.595C515.672 214.134 514.113 207.929 506 205.517H381.988C381.988 205.517 282.313 209.091 276.74 200.751C268.612 188.588 251.584 185.055 239.407 189.631C222.933 195.821 225.947 173.359 212.003 162.623C155.154 118.858 102.784 58.9645 87.2943 29.5746C82.5283 20.5316 81.3642 9.28458 65.8476 8.12778C43.4843 6.46053 12.628 21.6315 8.25919 23.2202C3.89042 24.8089 35.6632 95.5036 35.6632 95.5036C38.2531 95.9983 43.0533 97.1483 44.0036 99.8724C55.9184 134.028 49.961 159.049 61.0815 196.78C72.3446 234.994 82.5251 250.484 122.244 253.574C128.739 254.079 150.312 254.982 156.797 254.368C167.808 253.325 187.044 244.242 198.102 244.439C202.795 244.523 200.954 253.574 205.648 253.574Z" stroke="#FF7800" stroke-width="15" stroke-dasharray="1310" stroke-dashoffset="-575"/>

  <path fill="none" d="M310.648 254.574C248.939 253.574 257.279 253.574 300.569 254.765C331.889 255.627 355.028 255.1 386.356 255.559L457.051 253.574C457.051 253.574 514.657 250.139 515.434 222.595C515.672 214.134 514.113 207.929 506 205.517H381.988C381.988 205.517 282.313 209.091 276.74 200.751C268.612 188.588 251.584 185.055 239.407 189.631C222.933 195.821 225.947 173.359 212.003 162.623C155.154 118.858 102.784 58.9645 87.2943 29.5746C82.5283 20.5316 81.3642 9.28458 65.8476 8.12778C43.4843 6.46053 12.628 21.6315 8.25919 23.2202C3.89042 24.8089 35.6632 95.5036 35.6632 95.5036C38.2531 95.9983 43.0533 97.1483 44.0036 99.8724C55.9184 134.028 49.961 159.049 61.0815 196.78C72.3446 234.994 82.5251 250.484 122.244 253.574C128.739 254.079 150.312 254.982 156.797 254.368C167.808 253.325 187.044 244.242 198.102 244.439C202.795 244.523 200.954 253.574 205.648 253.574Z" stroke="#0073C6" stroke-width="15" stroke-dasharray="1310" stroke-dashoffset="-840"/>

  <path fill="none" d="M310.648 254.574C248.939 253.574 257.279 253.574 300.569 254.765C331.889 255.627 355.028 255.1 386.356 255.559L457.051 253.574C457.051 253.574 514.657 250.139 515.434 222.595C515.672 214.134 514.113 207.929 506 205.517H381.988C381.988 205.517 282.313 209.091 276.74 200.751C268.612 188.588 251.584 185.055 239.407 189.631C222.933 195.821 225.947 173.359 212.003 162.623C155.154 118.858 102.784 58.9645 87.2943 29.5746C82.5283 20.5316 81.3642 9.28458 65.8476 8.12778C43.4843 6.46053 12.628 21.6315 8.25919 23.2202C3.89042 24.8089 35.6632 95.5036 35.6632 95.5036C38.2531 95.9983 43.0533 97.1483 44.0036 99.8724C55.9184 134.028 49.961 159.049 61.0815 196.78C72.3446 234.994 82.5251 250.484 122.244 253.574C128.739 254.079 150.312 254.982 156.797 254.368C167.808 253.325 187.044 244.242 198.102 244.439C202.795 244.523 200.954 253.574 205.648 253.574Z" stroke="#10C000" stroke-width="15" stroke-dasharray="1310" stroke-dashoffset="-1000"/>
</svg>